<svg xmlns="http://www.w3.org/2000/svg" width="290" height="312" viewBox="0 0 290 312">
    <g fill="none" fill-rule="evenodd" transform="translate(0 -1)">
        <path fill="#C1A08A" d="M272.906 260.692l5.711 4.234s9.577-2.612 9.577-8.184V242.29s-1.178-3.267-4.881 2.445c-3.704 5.71-4.63 7.148-6.702 10.326-2.073 3.179-5.053 4.884-5.053 4.884l1.348.748z"/>
        <path fill="#D0AC92" d="M242.538 285.307v24.122s-.15 1.337.567 1.337h14.623s.76.698.76-1.318c0-2.015-3.75-6.568-4.353-7.09-.603-.524-.738-.42-.738-1.617V285.464l-10.86-.157z"/>
        <path fill="#C2A08A" d="M230.762 280.786V309.121s.15 1.338-.567 1.338h-14.623s-.76.698-.76-1.318c0-2.015 3.75-6.568 4.353-7.091.603-.523.738-.42.738-1.616v-32.339l10.86 12.691z"/>
        <path fill="#AD8C77" d="M271.39 280.938V305.058s.16 1.338-.61 1.338H260.314s-.814.698-.814-1.317c0-2.016 2.28-3.319 2.928-3.841.647-.523.793-.42.793-1.616V284.345l8.168-3.408z"/>
        <path fill="#D0AC92" d="M221.856 246.156s-2.242 17.42-1.983 23.291c.07 1.606 0 2.751.116 3.395.116.643.517 6.372 1.867 7.467 4.667 3.783 13.217 11.188 15.531 11.876 2.199.654 24.145-4.53 31.386-4.304.612.02 3.699-.03 4.095 0 .515.039.954.17 1.458.242.08.011.164.011.24.035 3.089.986 3.608 1.11 4.98 1.495.668.189 2.644.46 3.014.83.15.873.2 2.696.2 2.696l.287 9.118s-2.217 2.494-2.88 4.466c-.662 1.972.202 2.22.202 2.22h8.66s1.377.251 2.045-.363c.513-.472.359-1.727.359-2.334v-18.462-1.073c0-.236-1.16-1.248-1.639-1.68-1.644-1.478-4.432-3.87-4.432-4.762 0-1.153-2.802-21.509-2.802-21.509s-.119-1.724-2.473-2.684c-2.354-.96-38.397-7.81-38.397-7.81l-19.834-2.15z"/>
        <g transform="rotate(-9 1479.538 -1088.189)">
            <path fill="#D06D72" d="M30.536 50.036s.29 3.765 4.142 3.765c0-3.463.03-4.434.03-4.434l-4.14.012-.032.657z"/>
            <path fill="#EDA7C1" d="M38.622 50.036s-.29 3.765-4.141 3.765c0-3.463-.03-4.434-.03-4.434l4.139.012.032.657z"/>
            <path fill="#DDBB9F" d="M22.714 8.624l-5.68 1.682 2.063-6.46z"/>
            <path fill="#E0C0A7" d="M34.45 3.846l16.638 6.08s.944.203 1.357 1.463c.414 1.26 6.34 21.448 6.34 21.448s.706 1.006-.214 2.62c-.92 1.613-5.865 8.95-5.865 8.95s-.72 1.446-3.579 2.388c-2.859.94-14.607 3.774-14.607 3.774l-.07-46.723z"/>
            <path fill="#D0AC92" d="M34.581 3.846l-16.637 6.08s-.944.203-1.358 1.463c-.414 1.26-6.34 21.448-6.34 21.448s-.705 1.006.215 2.62c.92 1.613 5.864 8.95 5.864 8.95s.72 1.446 3.58 2.388c2.858.94 14.607 3.774 14.607 3.774l.07-46.723z"/>
            <path fill="#F6E6D9" d="M34.45 37.744s3.252.767 19.687 4.967c-.826 1.236-1.43 2.133-1.43 2.133s-.721 1.447-3.58 2.388c-2.859.942-14.607 3.775-14.607 3.775l-.07-13.263z"/>
            <path fill="#E3C088" d="M34.567 37.744s-3.252.767-19.687 4.967c.826 1.236 1.43 2.133 1.43 2.133s.721 1.447 3.58 2.388c2.859.942 14.607 3.775 14.607 3.775l.07-13.263z"/>
            <ellipse cx="44.235" cy="24.185" fill="#292728" rx="2.935" ry="2.906"/>
            <ellipse cx="24.665" cy="24.185" fill="#292728" rx="2.935" ry="2.906"/>
            <path fill="#88652D" d="M27.6 39.758s1.774 4.685 6.525 4.685c4.75 0 6.251-4.574 6.251-4.574s-2.704-2.125-6.3-2.125c-3.595 0-6.475 2.014-6.475 2.014z"/>
            <path fill="#F5E9DB" d="M46.388 8.236l5.424 2.07-2.064-6.46z"/>
            <path fill="#D0AC94" d="M49.715 3.887l5.427 16.8s2.22 2.658 4.05 2.658c1.831 0 3.943-2.025 4.307-2.342.364-.317 5.27-15.947 5.27-15.947s.39-1.127-1.084-2.654C66.212.876 66.304.796 66.304.796s-.626-.519-2.366-.519h-10.08s-.62-.127-1.1.358c-.481.486-3.043 3.252-3.043 3.252z"/>
            <path fill="#AD8C77" d="M19.303 4.08l-5.426 16.8s-2.22 2.659-4.051 2.659c-1.83 0-3.943-2.025-4.307-2.342C5.156 20.88.25 5.249.25 5.249s-.39-1.126 1.084-2.653C2.806 1.07 2.715.99 2.715.99S3.34.47 5.08.47h10.08s.62-.128 1.101.358c.48.485 3.042 3.252 3.042 3.252z"/>
        </g>
        <rect width="23" height="104" x="110" y="127" stroke="#414141" stroke-width="3" rx="2"/>
        <path fill="#414141" d="M115 124h13v6h-13z"/>
        <rect width="86" height="104" x="78" y="197" fill="#274061" rx="4"/>
        <path fill="#486080" fill-opacity=".3" d="M78 200.997A4 4 0 0 1 81.995 197h76.014c2.207 0 3.083 1.53 1.95 3.43l-57.914 97.14c-1.13 1.894-3.845 3.43-6.055 3.43H82.01a4 4 0 0 1-4.01-3.997v-96.006z"/>
        <g fill="#3F5D85">
            <path d="M145 207h4v84h-4zM127.667 207h4v84h-4zM110.333 207h4v84h-4zM93 207h4v84h-4z"/>
        </g>
        <g transform="matrix(-1 0 0 1 121 0)">
            <path fill="#EED2BF" d="M63.321 6.29l-23.327 5.555s-1.323.284-1.903 2.057c-.58 1.773-8.889 33.172-8.889 33.172s-.99 1.416.3 3.685c1.29 2.27 8.223 12.59 8.223 12.59s1.01 2.036 5.018 3.36c4.008 1.324 20.481 5.31 20.481 5.31l.097-65.729z"/>
            <ellipse cx="45.733" cy="28.876" fill="#292728" rx="2.474" ry="2.457"/>
            <path fill="#EED2BF" d="M35.294 40.603c2.078 0 2.017-4.866 2.017-6.95 0-2.085 1.13-4.939-.948-4.939-1.249 0-2.423 2.041-4.418 3.888-1.325 1.227-3.894 2.204-3.894 3.036 0 2.084 5.166 4.965 7.243 4.965zM75.442 218.254s2.065 17.853 3.838 20.322c1.773 2.468 13.449 28.72 13.449 28.72s3.082 5.3 1.541 10.264c-1.541 4.965-14.487 16.657-14.487 16.657l5.869 5.035 24.004-16.479s-6.2-15.863-6.2-19.941c0-4.08-5.953-28.304-5.953-31.136 0-2.833-10.74-24.982-10.74-24.982l-11.257 10.171-.064 1.369z"/>
            <path fill="#FAE2D2" d="M57.742 212.78s-3.394 9.512-1.697 13.127c1.697 3.616 3.582 8.8 3.582 10.766 0 1.966-1.092 38.049-1.092 38.049s.537 8.072-5.96 12.09c-6.498 4.018-16.903 6.99-16.903 6.99s-9.784 1.277-3.81 4.463c5.976 3.185 32.392 1.09 32.392 1.09s10.843-39.587 13.524-46.836c2.68-7.25 1.091-16.13 1.091-16.13l1.965-30.415-23.092 6.806z"/>
            <path fill="#3E9EC8" d="M37.327 293.221s-15.214 2.884-17.46 4.894c-2.248 2.01 1.243 4.41 10.822 7.711 9.578 3.301 34.958 2.867 34.958 2.867s1.336-9.784-.061-11.175c-1.398-1.392-23.18 4.854-33.525.597-1.683-3.026 5.266-4.894 5.266-4.894zM85.73 288.572s-13.45 10.909-14.39 13.773c-.94 2.864 3.282 3.197 13.228 1.267 9.946-1.931 29.627-13.93 29.627-13.93s-3.734-9.141-5.64-9.648c-1.907-.506-15.567 14.727-26.654 16.213-2.97-1.78 3.83-7.675 3.83-7.675z"/>
            <path fill="#FAE2D2" d="M49.68 89.93L15.2 136.187l-7.752 6.58-7.36 19.706 7.681 7.951 6.195-22.721 30.405-30.019z"/>
            <path fill="#94D1EC" d="M51.763 75.91L22.272 212.116s-2.975 2.838-.467 4.11c2.507 1.271 48.885 8.53 56.664 8.53 3.507 0 3.487.89 8.923-3.342 5.435-4.233 31.02-25.579 31.02-25.579s3.567-.986 1.783-2.669c-1.783-1.682-19.388-23.31-19.388-23.31L76.527 82.99l-20.034-8.564-4.73 1.485z"/>
            <path fill="#82C4E2" d="M51.763 75.91l4.73 107.822s12.576 22.283 21.976 41.024c3.507 0 3.487.89 8.923-3.342 5.435-4.233 31.02-25.579 31.02-25.579s3.567-.986 1.783-2.669c-1.783-1.682-19.388-23.31-19.388-23.31L76.527 82.99l-20.034-8.564-4.73 1.485z"/>
            <path fill="#FAE2D2" d="M57.31 100.846l16.18 51.55 2.418 14.41 10.164 14.371 12.889.914-16.018-21.011-9.667-65.082z"/>
            <path fill="#94D1EB" d="M56.483 88.631l-.554 11.803s.764 1.55 3.733 2.99c2.97 1.44 5.444 1.841 5.444 1.841s6.443-2.967 8.656-4.806c2.213-1.84-3.273-13.134-3.273-13.134l-14.006 1.306z"/>
            <path fill="#9B7963" d="M98.176 20.428s14.24 34.723 16.111 61.492c-13.554 3.43-20.81 3.972-28.051 5.792-3.296.829-1.757 1.124-4.276 1.008-2.293-.105-7.75-2.06-11.275-3.058-9.677-2.739-13.998-5.063-14.209-5.223-.25-.19-4.313-56.793-4.313-56.793s-.304-.716.582-1.776c.886-1.06.823-1.108.823-1.108s-16.171-8.604-15.043-8.683c.244-.017 5.041-6.503 6.869-7.263 1.506-.626 10.322-1.097 21.05.603 1.151.183 11.177.222 12.144.487 1.133.31 2.695 1.783 3.81 2.3 8.681 4.032 15.778 12.222 15.778 12.222z"/>
            <path fill="#AA8872" d="M98.176 20.428s14.24 34.723 16.111 61.492c-44.896-38.415-35.7-30.387-43.39-44.02-7.691-13.632-13.28-12.858-13.28-12.858s-5.758-2.112-4.872-3.172c.886-1.06.823-1.108.823-1.108s-16.171-8.604-15.043-8.683c.244-.017 5.041-6.503 6.869-7.263 1.506-.626 10.322-1.097 21.05.603 1.151.183 11.177.222 12.144.487 1.133.31 2.695 1.783 3.81 2.3 8.681 4.032 15.778 12.222 15.778 12.222z"/>
        </g>
    </g>
</svg>
