<svg xmlns="http://www.w3.org/2000/svg" xmlns:xlink="http://www.w3.org/1999/xlink" width="274" height="196" viewBox="0 0 274 196">
    <defs>
        <rect id="a" width="31" height="30.977" rx="2"/>
        <rect id="b" width="31" height="30.977" y="56.791" rx="2"/>
        <rect id="c" width="31" height="30.977" y="117.023" rx="2"/>
    </defs>
    <g fill="none" fill-rule="evenodd">
        <g transform="translate(6 25)">
            <use fill="#FFF" xlink:href="#a"/>
            <rect width="29.5" height="29.477" x=".75" y=".75" stroke="#C0C3C9" stroke-opacity=".423" stroke-width="1.5" rx="2"/>
        </g>
        <g transform="translate(6 25)">
            <use fill="#FFF" xlink:href="#b"/>
            <rect width="29.5" height="29.477" x=".75" y="57.541" stroke="#C0C3C9" stroke-opacity=".423" stroke-width="1.5" rx="2"/>
        </g>
        <g transform="translate(6 25)">
            <use fill="#FFF" xlink:href="#c"/>
            <rect width="29.5" height="29.477" x=".75" y="117.773" stroke="#C0C3C9" stroke-opacity=".423" stroke-width="1.5" rx="2"/>
        </g>
        <path fill="#E8E8E8" fill-opacity=".727" d="M61 35h207v9H61z"/>
        <path fill="#3E9EC8" d="M61 83h197v9H61z"/>
        <path fill="#E8E8E8" fill-opacity=".727" d="M61 153h197v9H61z"/>
        <path fill="#3E9EC8" stroke="#FFF" stroke-width="2" d="M15.384 107.49L3.874 95.614l4.21-4.345 9.405 9.703 19.427-20.055 4.21 4.348-21.531 22.228c-.557.574-2.106 1.897-2.106 1.897s-1.548-1.323-2.105-1.9z"/>
        <path fill="#9DCADE" d="M61 100h137v9H61z"/>
    </g>
</svg>
