<svg xmlns="http://www.w3.org/2000/svg" xmlns:xlink="http://www.w3.org/1999/xlink" width="408" height="426" viewBox="0 0 408 426">
    <defs>
        <path id="a" d="M0 0h1440v600H0z"/>
        <path id="c" d="M.892.749h406.166v398.625H.892z"/>
    </defs>
    <g fill="none" fill-rule="evenodd">
        <g transform="translate(-753 -201)">
            <mask id="b" fill="#fff">
                <use xlink:href="#a"/>
            </mask>
            <use fill="#E9F6FB" xlink:href="#a"/>
            <g fill="#E9F6FB" mask="url(#b)" opacity=".06">
                <path d="M1136.841 124.997c-6.195-77.576-1.134-162.012 12.31-238.489 16.157-69.178 61.195-126.886 136.992-137.978 30.976-5.75 67.839-2.653 90.398 13.899 132.225 106.051 159.017 338.556 56.951 466.565-16.576 22.548-51.468 32.505-78.019 50.417-91.736 27.903-206.658-45.892-218.632-154.414zM537.034 993.83c91.359-78.646 84.046-170.07 82.44-263.502 2.846-72.39-29.954-144.754-19.338-213.488 10.663-68.729 42.148-151.52 91.068-195.287 60.123-57.56 162.692-78.646 235.617-20.887 119.302 96.033 254.948 121.248 402.308 116.26 121.313-5.224 194.218 52.543 207.263 141.835 20.849 128.614-49.155 212.478-160.573 227.07-127.82 14.099-196.536 74.809-256.403 177.647-19.25 36.198-93.956 53.628-143.948 58.877-132.798 9.426-180.674 55.999-182.708 193.01 1.875 138.75-128.562 234.872-236.365 170.308-33.327-20.294-54.66-61.153-65.62-73.387-52.895-136.45-31.824-247.852 46.26-318.457z"/>
            </g>
        </g>
        <g transform="translate(-.84 .102)">
            <mask id="d" fill="#fff">
                <use xlink:href="#c"/>
            </mask>
            <path fill="#E0C0A7" d="M198.805 451.501c87.636 0 204.46 10.377 204.46-46.31 0-56.688-116.824-176.364-204.46-176.364-87.636 0-166.058 120.924-189.331 176.364-23.274 55.44 101.695 46.31 189.33 46.31z" mask="url(#d)"/>
            <path fill="#D0AC92" d="M205.704 451.501s0-46.31-6.9-222.674c-87.635 0-186.36 122.261-189.33 176.364-2.97 54.102 196.23 46.31 196.23 46.31z" mask="url(#d)"/>
            <path fill="#D06D72" d="M178.882 303.623s1.733 22.911 24.732 22.911c0-21.077.18-26.985.18-26.985l-24.719.075-.193 3.999z" mask="url(#d)"/>
            <path fill="#EDA7C1" d="M227.167 303.623s-1.733 22.911-24.732 22.911c0-21.077-.18-26.985-.18-26.985l24.719.075" mask="url(#d)"/>
            <path fill="#DDBB9F" d="M131.925 52.074L98 62.309 110.326 23" mask="url(#d)"/>
            <path fill="#E0C0A7" d="M202.254 22.555l99.352 37.002s5.635 1.228 8.106 8.898 37.855 130.513 37.855 130.513 4.217 6.123-1.278 15.939c-5.495 9.816-35.018 54.46-35.018 54.46s-4.304 8.803-21.375 14.53c-17.07 5.729-87.227 22.97-87.227 22.97l-.415-284.312z" mask="url(#d)"/>
            <path fill="#D0AC92" d="M205.957 22.538L106.605 59.54s-5.635 1.228-8.106 8.898S60.644 198.95 60.644 198.95s-4.216 6.122 1.278 15.938c5.495 9.817 35.018 54.46 35.018 54.46s4.305 8.804 21.375 14.532 87.228 22.968 87.228 22.968" mask="url(#d)"/>
            <path fill="#F6E6D9" d="M202.254 228.827s18.393 3.613 116.533 29.172c-4.93 7.52-8.541 12.98-8.541 12.98s-4.304 8.803-21.375 14.531c-17.07 5.728-86.202 24.02-86.202 24.02l-.415-80.703z" mask="url(#d)"/>
            <path fill="#E3C088" d="M202.95 228.827s-17.79.264-115.93 25.824c4.931 7.52 8.541 12.98 8.541 12.98s4.305 8.803 21.375 14.53c17.07 5.729 85.6 27.37 85.6 27.37" mask="url(#d)"/>
            <ellipse cx="260.685" cy="146.318" fill="#292728" mask="url(#d)" rx="17.529" ry="17.68"/>
            <ellipse cx="143.823" cy="146.318" fill="#292728" mask="url(#d)" rx="17.529" ry="17.68"/>
            <path fill="#88652D" d="M159.846 237.004s12.097 32.583 40.465 32.583c28.369 0 41.306-31.476 41.306-31.476s-20.125-9.284-41.597-9.284c-21.471 0-40.174 8.177-40.174 8.177z" mask="url(#d)"/>
            <path fill="#F5E9DB" d="M274 49.712l32.39 12.597L294.065 23z" mask="url(#d)"/>
            <path fill="#D0AC94" d="M293 23.056l32.407 102.225s13.258 16.178 24.189 16.178c10.931 0 23.544-12.321 25.716-14.25 2.171-1.928 31.468-97.041 31.468-97.041s2.328-6.855-6.47-16.145-8.25-9.775-8.25-9.775-3.734-3.155-14.127-3.155h-60.19s-3.706-.778-6.575 2.176S293 23.056 293 23.056z" mask="url(#d)"/>
            <path fill="#AD8C77" d="M115.059 23.056L82.652 125.281s-13.258 16.178-24.19 16.178c-10.93 0-23.544-12.321-25.715-14.25-2.172-1.928-31.468-97.041-31.468-97.041s-2.329-6.855 6.47-16.145c8.797-9.29 8.25-9.775 8.25-9.775s3.734-3.155 14.127-3.155h60.189s3.707-.778 6.575 2.176" mask="url(#d)"/>
        </g>
        <path fill="#AD8C77" d="M149.546 398.319c0 1.267-17.713 24.984-52.58 26.853-34.867 1.869-51.589-26.853-51.589-26.853s16.16-22.295 49.375-23.358c33.215-1.063 54.794 22.09 54.794 23.358z"/>
        <path fill="#D0AC94" d="M252 398.394c0 1.267 17.713 24.983 52.58 26.852 34.867 1.87 51.59-26.852 51.59-26.852s-16.162-22.295-49.376-23.358C273.579 373.972 252 397.126 252 398.394z"/>
    </g>
</svg>
